<?xml version="1.0" encoding="utf-8"?>
<!-- Generator: Adobe Illustrator 22.0.1, SVG Export Plug-In . SVG Version: 6.00 Build 0)  -->
<svg version="1.1" xmlns="http://www.w3.org/2000/svg" xmlns:xlink="http://www.w3.org/1999/xlink" x="0px" y="0px"
	 viewBox="0 0 340.2 340.2" style="enable-background:new 0 0 340.2 340.2;" xml:space="preserve">
<style type="text/css">
	.st0{fill:#17BCB4;}
	.st1{fill:#1B1464;}
	.st2{fill:#F0BA7A;}
	.st3{fill:#F1F3F7;}
	.st4{fill:#393D47;}
	.st5{fill:#F7CFA2;}
	.st6{fill:#2E3192;}
	.st7{fill:#FCFCFD;}
	.st8{fill:#FFFFFF;}
	.st9{clip-path:url(#SVGID_2_);}
	.st10{fill:#FEC656;}
	.st11{fill:#637888;}
	.st12{fill:#FAECE1;}
	.st13{fill:#84DBFF;}
	.st14{fill:#F1543F;}
	.st15{fill:#FF7058;}
	.st16{fill:#324A5E;}
	.st17{fill:#E6E9EE;}
	.st18{fill:#2B3B4E;}
	.st19{fill:#ACB3BA;}
	.st20{fill:#CED5E0;}
	.st21{fill:none;stroke:#2C9984;stroke-width:1.549;stroke-miterlimit:10;}
	.st22{fill:none;stroke:#2C9984;stroke-width:1.549;stroke-linecap:round;stroke-miterlimit:10;}
	.st23{fill:#199B8E;}
	.st24{fill:#FFD05B;}
	.st25{fill:#F9B54C;}
	.st26{fill:#FF5349;}
	.st27{fill:#EFEBDE;}
	.st28{fill:#D5D0BB;}
	.st29{fill:#26B999;}
	.st30{fill:#FBB03B;}
	.st31{fill:#3D4550;}
	.st32{fill:#F2A040;}
	.st33{fill:#2D424D;}
	.st34{fill:#253740;}
	.st35{fill:#1E2C33;}
	.st36{fill:#FFD464;}
	.st37{fill:#E16B5A;}
	.st38{fill:#FFE399;}
</style>
<g id="Capa_1">
	<g>
		<ellipse class="st0" cx="170.5" cy="170.2" rx="169.3" ry="169.3"/>
		<path class="st1" d="M266.4,237v-15.2c0-14.4-12.3-26.2-27.5-26.2H102c-15.2,0-27.5,11.8-27.5,26.2V237H266.4z"/>
		<path class="st2" d="M198.4,219c-12.5,21.2-43.4,21.2-55.9,0c0-12.1,0-24.5,0-36.6c18.6,0,37.4,0,55.9,0
			C198.4,194.6,198.4,206.9,198.4,219z"/>
		<path class="st3" d="M273.1,239.9c-1.7-7.2-7.4-12.9-15-15.4l-52.3-15.7l-12.9,11.9l-44.9,0.2l-14.4-12.1l-50.6,15.7
			c-7.6,2.5-13.1,8.3-15,15.4l-7.8,31.3c26,32,65.8,52.5,110.4,52.5s84.4-20.5,110.6-52.5L273.1,239.9z"/>
		<ellipse class="st4" cx="169.7" cy="116.8" rx="70.2" ry="70.1"/>
		<path class="st5" d="M194.8,89.9c-19.9,41.5-67.7,36.4-82.1,33.7v21.8c0,31.5,25.6,57.1,57.1,57.1s57.1-25.6,57.1-57.1v-26
			C200.5,117.4,194.8,89.9,194.8,89.9z"/>
		<g>
			<path class="st6" d="M93.5,300.9c6.4,4.2,13.5,8,20.7,11v-98.6H93.5V300.9z"/>
			<path class="st6" d="M227,311.9c7.2-3,14-6.8,20.7-11v-87.6H227V311.9z"/>
		</g>
		<g>
			<polygon class="st7" points="140,199 169.7,224.5 145.8,259.6 130,211 			"/>
			<polygon class="st7" points="200.2,199 170.5,224.5 194.4,259.6 210.1,211 			"/>
		</g>
	</g>
	<path class="st8" d="M38.8,277.3c0,0,128-73.4,261.6,0.4c0,0-30,57.4-124.7,61.8C87.7,343.6,38.8,277.3,38.8,277.3z"/>
	<g>
		<path d="M103.5,300.2h-9.7v-17.1h9.7v2.4h-6.9v4.7h6.5v2.3h-6.5v5.4h6.9V300.2z"/>
		<path d="M117.1,295.6c0,1.5-0.6,2.7-1.7,3.6c-1.1,0.9-2.6,1.3-4.6,1.3c-1.9,0-3.5-0.3-4.8-0.9v-2.6c0.8,0.4,1.6,0.7,2.5,0.9
			s1.7,0.3,2.5,0.3c1.1,0,1.9-0.2,2.5-0.6s0.8-1,0.8-1.7c0-0.6-0.2-1.2-0.7-1.6s-1.5-1-3-1.6c-1.6-0.6-2.7-1.4-3.3-2.2
			c-0.6-0.8-1-1.8-1-2.9c0-1.4,0.5-2.6,1.5-3.4c1-0.8,2.4-1.2,4.1-1.2c1.6,0,3.3,0.4,4.9,1.1l-0.9,2.3c-1.5-0.6-2.9-1-4.1-1
			c-0.9,0-1.6,0.2-2.1,0.6s-0.7,0.9-0.7,1.6c0,0.4,0.1,0.8,0.3,1.1s0.5,0.6,0.9,0.9s1.2,0.7,2.3,1.1c1.3,0.5,2.2,1,2.8,1.5
			s1,1,1.3,1.5C117,294.1,117.1,294.8,117.1,295.6z"/>
		<path d="M126.4,300.2h-2.8v-14.7h-5v-2.4h12.9v2.4h-5V300.2z"/>
		<path d="M147.5,283.1v11.1c0,1.3-0.3,2.4-0.8,3.3s-1.3,1.7-2.4,2.2s-2.3,0.8-3.7,0.8c-2.1,0-3.8-0.6-5-1.7s-1.8-2.7-1.8-4.6v-11
			h2.8v10.8c0,1.4,0.3,2.5,1,3.1s1.7,1,3,1c2.6,0,4-1.4,4-4.2v-10.8H147.5z"/>
		<path d="M165.8,291.5c0,2.8-0.8,5-2.4,6.5s-3.8,2.2-6.8,2.2h-4.8v-17.1h5.3c2.7,0,4.8,0.7,6.4,2.2S165.8,288.8,165.8,291.5z
			 M162.8,291.6c0-4.1-1.9-6.2-5.8-6.2h-2.4v12.4h2C160.8,297.8,162.8,295.8,162.8,291.6z"/>
		<path d="M169.5,300.2v-17.1h2.8v17.1H169.5z"/>
		<path d="M187.4,300.2l-1.7-4.8h-6.6l-1.7,4.8h-3l6.4-17.2h3l6.4,17.2H187.4z M185,293l-1.6-4.7c-0.1-0.3-0.3-0.8-0.5-1.5
			s-0.3-1.2-0.4-1.5c-0.2,1-0.5,2-0.9,3.2L180,293H185z"/>
		<path d="M206.9,300.2h-3.4l-8.4-13.7H195l0.1,0.8c0.1,1.5,0.2,2.8,0.2,4v8.9h-2.5v-17.1h3.4l8.4,13.6h0.1c0-0.2,0-0.8-0.1-2
			s-0.1-2-0.1-2.6v-9h2.6V300.2z"/>
		<path d="M217.4,300.2h-2.8v-14.7h-5v-2.4h12.9v2.4h-5V300.2z"/>
		<path d="M234.7,300.2H225v-17.1h9.7v2.4h-6.9v4.7h6.5v2.3h-6.5v5.4h6.9V300.2z"/>
		<path d="M248.3,295.6c0,1.5-0.6,2.7-1.7,3.6c-1.1,0.9-2.6,1.3-4.6,1.3c-1.9,0-3.5-0.3-4.8-0.9v-2.6c0.8,0.4,1.6,0.7,2.5,0.9
			s1.7,0.3,2.5,0.3c1.1,0,1.9-0.2,2.5-0.6s0.8-1,0.8-1.7c0-0.6-0.2-1.2-0.7-1.6s-1.5-1-3-1.6c-1.6-0.6-2.7-1.4-3.3-2.2
			c-0.6-0.8-1-1.8-1-2.9c0-1.4,0.5-2.6,1.5-3.4c1-0.8,2.4-1.2,4.1-1.2c1.6,0,3.3,0.4,4.9,1.1l-0.9,2.3c-1.5-0.6-2.9-1-4.1-1
			c-0.9,0-1.6,0.2-2.1,0.6s-0.7,0.9-0.7,1.6c0,0.4,0.1,0.8,0.3,1.1s0.5,0.6,0.9,0.9s1.2,0.7,2.3,1.1c1.3,0.5,2.2,1,2.8,1.5
			s1,1,1.3,1.5C248.2,294.1,248.3,294.8,248.3,295.6z"/>
	</g>
</g>
<g id="Capa_2">
</g>
<g id="Capa_3">
</g>
<g id="Capa_4">
</g>
<g id="Capa_5">
</g>
<g id="Capa_6">
</g>
<g id="Capa_7">
</g>
<g id="Capa_8">
</g>
<g id="Capa_9">
</g>
<g id="Capa_10">
</g>
</svg>
